<?xml version="1.0" encoding="utf-8"?>
<!-- Svg Vector Icons : http://www.onlinewebfonts.com/icon -->
<!DOCTYPE svg PUBLIC "-//W3C//DTD SVG 1.1//EN" "http://www.w3.org/Graphics/SVG/1.1/DTD/svg11.dtd">
<svg version="1.1" xmlns="http://www.w3.org/2000/svg" xmlns:xlink="http://www.w3.org/1999/xlink" x="0px" y="0px" viewBox="0 0 256 256" enable-background="new 0 0 256 256" xml:space="preserve">
<metadata> Svg Vector Icons : http://www.onlinewebfonts.com/icon </metadata>
<g><g><path fill="#000000" d="M193.6,217.1l0,0.2v0.2c0,4.5-4.5,8.1-10,8.1H73.1c-5.5,0-10-3.6-10-8.1v-0.2v-0.2l-10-152.9h150.4L193.6,217.1L193.6,217.1L193.6,217.1L193.6,217.1z M96.7,33.6c0-4.3,4-7.9,8.9-7.9h44.7c4.9,0,9,3.5,9,7.9v7.9H96.7V33.6L96.7,33.6L96.7,33.6L96.7,33.6z M178.3,43.7V32.5c0-12.4-10-22.5-22.4-22.5H100c-12.4,0-22.4,10.1-22.4,22.5v11.2H21.8v19.1h11.5l11.2,160.7c0,12.4,10,22.5,22.4,22.5h123c12.4,0,22.4-10.1,22.4-22.5l11-160.7h11V43.7H178.3z M185.8,81.3l-15.1-0.5l-15.2,133.3l15.1,0.5L185.8,81.3 M99.4,213.8L84,80.8l-15,0.5l15.4,133L99.4,213.8 M120.1,80.8H136v133.3h-15.9l0,0V80.8L120.1,80.8z"/></g></g>
</svg>